<svg xmlns="http://www.w3.org/2000/svg" width="512" height="512" viewBox="0 0 512 512" version="1.1"><path d="M 78.047 1.138 C 40.574 7.351, 6.798 41.709, 1.014 79.500 C 0.275 84.331, 0.032 140.408, 0.230 260.500 L 0.517 434.500 2.783 441.826 C 12.976 474.776, 37.454 499.239, 70.174 509.176 C 77.273 511.332, 79.126 511.411, 130.019 511.756 L 182.539 512.111 186.019 509.786 C 192.805 505.252, 192.997 504.151, 192.998 469.652 L 193 438.804 186.750 439.652 C 183.313 440.118, 173.750 440.453, 165.500 440.394 C 148.177 440.273, 138.679 438.576, 129.172 433.907 C 121.586 430.180, 112.181 421.238, 109.286 415 C 108.138 412.525, 105.426 406.656, 103.261 401.958 C 96.375 387.016, 89.300 378.601, 75.552 369 C 73.583 367.625, 71.019 365.001, 69.854 363.168 C 67.953 360.178, 67.892 359.679, 69.265 358.307 C 73.625 353.946, 88.259 356.461, 99.580 363.518 C 108.099 368.827, 112.747 373.684, 120.333 385.203 C 127.133 395.529, 133.856 401.819, 142.796 406.221 C 148.774 409.163, 150.455 409.516, 159.961 409.826 C 171.352 410.196, 181.685 408.560, 189.339 405.174 C 193.456 403.353, 193.785 402.916, 194.457 398.364 C 195.513 391.217, 200.418 380.168, 204.994 374.630 C 207.197 371.964, 209 369.381, 209 368.891 C 209 368.401, 207.709 368, 206.131 368 C 202.152 368, 187.183 365.365, 177 362.871 C 152.435 356.857, 128.120 341.887, 115.756 325.166 C 106.761 313, 98.918 292.929, 95.373 273 C 93.235 260.982, 92.905 231.215, 94.814 222.500 C 98.712 204.703, 104.661 192.317, 116.395 177.570 L 119.289 173.932 117.053 166.716 C 113.655 155.752, 113.199 139.420, 115.922 126.238 C 117.089 120.594, 118.885 113.844, 119.915 111.238 L 121.787 106.500 130.143 106.574 C 137.269 106.637, 139.973 107.204, 148.500 110.423 C 161.404 115.294, 174.498 121.675, 184.296 127.867 L 192.093 132.795 197.296 131.405 C 212.642 127.307, 238.762 124.021, 256 124.021 C 273.243 124.021, 299.358 127.307, 314.713 131.407 C 319.854 132.780, 319.989 132.758, 324.636 129.811 C 340.022 120.054, 360.175 110.492, 371.656 107.501 C 374.826 106.676, 380.218 106, 383.638 106 L 389.856 106 391.903 111.471 C 393.029 114.480, 394.906 121.568, 396.075 127.221 C 398.775 140.287, 398.332 155.751, 394.942 166.716 L 392.711 173.932 395.605 177.570 C 412.844 199.236, 418.522 216.123, 418.446 245.500 C 418.383 270.121, 414.559 289.424, 405.938 308.637 C 391.774 340.207, 358.994 360.793, 313 367.002 C 300.928 368.632, 301.190 368.398, 305.822 373.423 C 310.547 378.549, 314.333 385.619, 316.697 393.733 C 318.137 398.676, 318.458 406.859, 318.939 451 C 319.466 499.412, 319.615 502.690, 321.415 505.665 C 324.988 511.568, 324.136 511.474, 377 511.788 C 429.263 512.098, 434.086 511.777, 447.722 507.086 C 478.315 496.562, 504.501 467.104, 510.023 437 C 510.679 433.425, 511.617 429.719, 512.108 428.764 C 513.267 426.508, 513.295 81.699, 512.136 82.416 C 511.661 82.709, 511.007 80.707, 510.682 77.967 C 510.358 75.226, 508.779 69.175, 507.175 64.520 C 496.045 32.231, 465.750 6.311, 433 1.058 C 424.788 -0.260, 86.014 -0.183, 78.047 1.138 M 0.489 256 C 0.489 351.425, 0.606 390.462, 0.750 342.750 C 0.894 295.037, 0.894 216.962, 0.750 169.250 C 0.606 121.537, 0.489 160.575, 0.489 256 M 90.357 364.513 C 89.087 367.821, 94.170 370.430, 96.786 367.814 C 97.701 366.899, 97.597 366.213, 96.331 364.814 C 94.335 362.608, 91.149 362.448, 90.357 364.513 M 100.359 373.508 C 99.559 375.591, 102.643 380, 104.901 380 C 107.716 380, 109.354 377.531, 108.097 375.182 C 106.348 371.912, 101.383 370.838, 100.359 373.508 M 110.667 385.667 C 109.320 387.014, 110.063 389.961, 112.439 392.694 C 114.449 395.005, 115.198 395.305, 116.689 394.393 C 119.164 392.880, 119.477 390.377, 117.560 387.451 C 116.040 385.131, 112.197 384.137, 110.667 385.667 M 123.200 400.200 C 121.370 402.030, 121.760 404.435, 124.250 406.677 C 127.971 410.026, 129.014 410.297, 131.063 408.443 C 133.623 406.126, 133.512 405.144, 130.313 401.805 C 127.431 398.797, 125.124 398.276, 123.200 400.200 M 140.571 411.571 C 139.707 412.436, 139 413.760, 139 414.515 C 139 416.480, 142.988 419, 146.100 419 C 151.841 419, 152.377 413.024, 146.810 411.084 C 142.780 409.679, 142.437 409.705, 140.571 411.571 M 182.186 412.055 C 180.319 412.804, 179.933 413.613, 180.186 416.241 C 180.450 418.979, 180.950 419.552, 183.315 419.823 C 189.115 420.488, 193.575 414.448, 189.066 412.035 C 186.767 410.805, 185.292 410.809, 182.186 412.055 M 161.200 415.200 C 158.205 418.195, 160.683 422, 165.629 422 C 167.404 422, 169.564 421.293, 170.429 420.429 C 172.288 418.569, 172.304 418.436, 170.965 415.934 C 169.769 413.700, 163.195 413.205, 161.200 415.200" stroke="none" fill="#040404" fill-rule="evenodd"/></svg>