<svg xmlns="http://www.w3.org/2000/svg" width="500" height="500" viewBox="0 0 500 500" version="1.1"><path d="M 251 11.033 C 186.209 17.065, 128.716 51.126, 89.011 107 C 62.555 144.230, 45.819 185.377, 41.026 224.974 C 39.686 236.042, 39.706 277.384, 41.058 289.789 C 42.612 304.055, 45.463 317.151, 50.056 331.117 C 60.930 364.184, 76.728 391.339, 97.821 413.220 C 113.979 429.981, 146.132 455.061, 163.831 464.709 C 173.095 469.759, 195.371 479.390, 208.500 484.021 C 223.397 489.276, 262.531 491.663, 289.144 488.941 C 330.175 484.743, 372.165 466.669, 409 437.352 C 413.675 433.631, 427.063 421.111, 438.750 409.529 C 461.461 387.023, 462.493 385.493, 458 381 C 455.404 378.404, 452.223 378.473, 439.190 381.406 C 416.236 386.573, 407.784 387.502, 384 387.473 C 364.943 387.450, 359.664 387.100, 349.500 385.190 C 304.530 376.738, 259.320 357.714, 232.500 335.956 C 221.371 326.927, 213.231 317.555, 202.556 301.477 C 185.718 276.118, 179.607 262.944, 176.592 245.500 C 169.644 205.301, 174.595 157.006, 190.596 108.923 C 201.139 77.238, 219.495 53.022, 248.503 32.530 C 264.704 21.085, 274.500 13.204, 274.500 11.614 C 274.500 10.227, 262.774 9.936, 251 11.033" stroke="none" fill="#040404" fill-rule="evenodd"/></svg>