<svg xmlns="http://www.w3.org/2000/svg" width="512" height="512" viewBox="0 0 512 512" version="1.1"><path d="" stroke="none" fill="#080404" fill-rule="evenodd"/><path d="M 333 49.948 C 301.141 56.720, 274.730 77.307, 260.452 106.500 C 250.113 127.638, 247.418 145.459, 250.661 171.250 L 251.258 176 246.849 176 C 244.424 176, 237.054 175.329, 230.470 174.509 C 158.584 165.555, 95.347 132.484, 45.392 77.720 L 35.559 66.941 32.330 73.220 C 28.686 80.308, 24.759 91.582, 22.829 100.500 C 20.745 110.127, 21.277 134.846, 23.765 144.031 C 29.442 164.978, 37.651 179.675, 51.432 193.561 C 56.419 198.587, 61.850 203.671, 63.500 204.858 L 66.500 207.017 61 206.438 C 49.121 205.186, 37.752 202.009, 25.603 196.547 L 19.705 193.895 20.390 202.967 C 23.725 247.144, 54.323 284.953, 96.500 297.014 L 102.500 298.730 96.500 300.010 C 89.668 301.467, 66.425 301.907, 60.663 300.688 C 56.988 299.911, 56.853 299.974, 57.453 302.188 C 59.233 308.753, 69.623 327.390, 75.277 334.162 C 94.356 357.011, 116.559 369.112, 147.847 373.714 L 153.194 374.500 146.847 379.086 C 125.333 394.629, 97.136 407.110, 70.500 412.879 C 54.302 416.387, 42.944 417.442, 21.358 417.441 L 0.216 417.440 8.358 422.335 C 45.569 444.711, 87.035 458.177, 133.861 463.091 C 147.961 464.571, 190.426 463.690, 204 461.636 C 253.812 454.099, 291.417 439.900, 329.315 414.322 C 370.039 386.836, 405.672 345.371, 427.986 299.500 C 449.098 256.099, 459.857 211.287, 460.036 166 L 460.093 151.500 469.144 144.500 C 474.122 140.650, 482.493 133, 487.746 127.500 C 497.197 117.605, 512.605 98.272, 511.734 97.401 C 511.486 97.153, 509.082 97.899, 506.392 99.059 C 499.852 101.879, 485.028 106.687, 477 108.592 C 471.667 109.858, 455.416 112.994, 454.163 112.999 C 453.978 112.999, 457.355 110.384, 461.667 107.187 C 471.151 100.155, 478.378 92.331, 485.856 81 C 490.819 73.479, 498.505 57.171, 497.540 56.207 C 497.343 56.009, 493.203 57.874, 488.340 60.352 C 470.383 69.502, 460.044 73.481, 442.542 77.976 L 431.584 80.791 425.542 75.322 C 410.853 62.027, 393.053 53.210, 373.250 49.421 C 362.963 47.453, 343.542 47.707, 333 49.948" stroke="none" fill="#040404" fill-rule="evenodd"/></svg>