<svg xmlns="http://www.w3.org/2000/svg" width="512" height="512" viewBox="0 0 512 512" version="1.1"><path d="M 52.175 2.023 C 29.212 8.057, 11.406 24.637, 3.324 47.510 L 0.500 55.500 0.500 256 L 0.500 456.500 3.585 465.118 C 11.007 485.848, 26.665 501.284, 47.904 508.809 L 55.500 511.500 256 511.500 L 456.500 511.500 465.118 508.415 C 485.794 501.012, 501.673 484.931, 508.559 464.420 C 509.901 460.420, 511 456.241, 511 455.133 C 511 454.025, 511.450 452.840, 512 452.500 C 512.661 452.091, 513 385.137, 513 254.882 C 513 123.803, 512.665 58.089, 512 58.500 C 511.445 58.843, 510.994 58.091, 510.987 56.809 C 510.960 52.286, 505.238 38.127, 500.643 31.215 C 492.037 18.270, 479.572 8.653, 464.490 3.324 L 456.500 0.500 258 0.299 C 64.936 0.103, 59.299 0.150, 52.175 2.023 M 0.490 256 C 0.490 364.625, 0.607 409.062, 0.750 354.750 C 0.893 300.437, 0.893 211.562, 0.750 157.250 C 0.607 102.937, 0.490 147.375, 0.490 256 M 133.186 97.089 C 118.250 99.655, 105.476 110.676, 100.018 125.706 C 98.099 130.990, 97.826 133.369, 98.182 141.706 C 98.542 150.157, 99.034 152.401, 101.767 158.074 C 109.977 175.114, 129.111 185.274, 147.162 182.179 C 160.342 179.919, 171.238 172.671, 177.708 161.860 C 189.545 142.080, 183.687 116.156, 164.589 103.813 C 155.241 97.771, 143.657 95.291, 133.186 97.089 M 315.754 200.517 C 300.771 203.348, 289.007 209.757, 279.490 220.274 C 276.470 223.611, 274 226.714, 274 227.170 C 274 227.627, 273.550 228, 273 228 C 272.399 228, 272 223.974, 272 217.923 C 272 208.119, 271.921 207.767, 269.077 204.923 L 266.154 202 239.093 202 L 212.032 202 208.766 204.918 L 205.500 207.835 205.231 306.904 C 204.931 417.327, 204.598 411.681, 211.579 414.598 C 214.598 415.859, 219.584 416.069, 240.365 415.812 C 267.249 415.478, 268.667 415.221, 270.929 410.257 C 271.648 408.678, 272 390.169, 272 353.911 C 272 293.839, 272.279 290.536, 278.459 277.344 C 280.303 273.408, 283.700 268.300, 286.008 265.992 C 300.501 251.499, 327.461 253.435, 337.774 269.708 C 345.488 281.879, 345.984 286.886, 345.992 352.673 L 346 408.847 348.589 411.923 L 351.178 415 379.866 415 C 411.913 415, 412.082 414.966, 413.956 408.221 C 416.320 399.707, 414.325 279.563, 411.569 264.500 C 409.457 252.957, 404.239 237.682, 399.899 230.338 C 392.023 217.009, 378.183 206.656, 361.984 201.973 C 352.096 199.115, 327.304 198.334, 315.754 200.517 M 113 203.279 C 111.625 203.966, 109.713 206.097, 108.752 208.014 C 107.123 211.261, 107.003 218.166, 107.002 308.849 C 107 393.303, 107.199 406.616, 108.500 409.358 C 111.311 415.282, 112.177 415.469, 138.500 415.825 C 164.562 416.178, 168.563 415.642, 171.946 411.341 C 173.987 408.747, 174 408.081, 174 309.412 C 174 234.540, 173.706 209.449, 172.805 207.472 C 170.482 202.374, 168.282 201.999, 140.800 202.015 C 122.596 202.025, 114.799 202.380, 113 203.279" stroke="none" fill="#040404" fill-rule="evenodd"/></svg>