<svg xmlns="http://www.w3.org/2000/svg" width="500" height="500" viewBox="0 0 500 500" version="1.1"><path d="M 247 15.673 C 243.114 17.116, 243 18.275, 243 56.191 C 243 91.667, 243.072 93.072, 245 95 C 247.398 97.398, 250.746 97.567, 253.777 95.443 L 256 93.887 256 56.634 C 256 28.372, 255.698 18.987, 254.750 17.746 C 253.350 15.913, 249.283 14.826, 247 15.673 M 171.530 67.967 C 170.551 69.049, 169.750 70.979, 169.750 72.257 C 169.750 75.563, 182.701 106.051, 184.774 107.626 C 188.697 110.605, 195 107.420, 195 102.459 C 195 99.031, 182.354 68.990, 180.233 67.380 C 177.683 65.443, 173.562 65.721, 171.530 67.967 M 318.347 68.250 C 315.802 71.109, 304 99.349, 304 102.577 C 304 105.489, 307.249 109, 309.944 109 C 313.869 109, 316.879 104.485, 323.436 88.760 C 327.046 80.104, 330 72.627, 330 72.145 C 330 71.664, 329.067 70.084, 327.927 68.635 C 325.315 65.313, 321.110 65.144, 318.347 68.250 M 83.073 83.635 C 80.790 86.536, 80.523 88.241, 81.937 90.882 C 82.452 91.845, 94.572 103.965, 108.869 117.816 C 136.500 144.584, 137.507 145.283, 141.826 140.686 C 146.333 135.888, 145.880 135.271, 117.285 107.266 C 88.298 78.875, 87.338 78.212, 83.073 83.635 M 381.727 107.285 C 352.991 135.421, 352.411 136.219, 357.314 140.826 C 361.998 145.226, 362.789 144.665, 391.288 116.744 C 409.935 98.475, 418.064 89.857, 418.038 88.385 C 418.017 87.222, 417.067 85.084, 415.927 83.635 C 411.683 78.239, 410.692 78.923, 381.727 107.285 M 238 127.040 C 213.492 129.324, 192.126 138.039, 171.902 154 C 149.954 171.321, 133.951 198.489, 128.901 227 C 127.194 236.634, 127.194 257.366, 128.901 267 C 137.202 313.866, 172.086 351.415, 218.537 363.484 C 264.947 375.543, 315.163 359.212, 344.935 322.378 C 397.652 257.156, 369.719 161.348, 289.765 133.148 C 274.827 127.879, 254.602 125.493, 238 127.040 M 68 170 C 65.534 172.466, 65.429 176.129, 67.750 178.771 C 68.713 179.867, 77.059 183.813, 86.299 187.541 L 103.097 194.318 105.799 192.310 C 108.848 190.044, 109.814 185.446, 107.794 182.815 C 106.321 180.896, 75.220 168, 72.067 168 C 70.930 168, 69.100 168.900, 68 170 M 409.591 174.513 C 400.841 178.069, 392.854 181.728, 391.841 182.644 C 387.583 186.497, 391.541 194.722, 397.123 193.619 C 401.178 192.818, 429.281 180.973, 431.250 179.235 C 434.865 176.044, 431.980 167.959, 427.250 168.024 C 426.288 168.037, 418.341 170.957, 409.591 174.513 M 17.223 241.557 C 15.569 242.715, 15 244.116, 15 247.034 C 15 254.169, 14.634 254.110, 56.960 253.786 C 92.456 253.513, 94.228 253.411, 95.581 251.559 C 97.795 248.530, 97.381 243.380, 94.777 241.557 C 92.864 240.217, 87.467 240, 56 240 C 24.533 240, 19.136 240.217, 17.223 241.557 M 404 242 C 402.011 243.989, 401.363 248.500, 402.765 250.600 C 404.852 253.725, 408.189 254, 443.980 254 L 480.091 254 482.545 251.545 C 483.895 250.195, 485 248.150, 485 247 C 485 245.850, 483.895 243.805, 482.545 242.455 L 480.091 240 443.045 240 C 407.333 240, 405.928 240.072, 404 242 M 85.500 306.640 C 76.700 310.250, 68.713 313.903, 67.750 314.757 C 64.100 317.996, 67.013 326, 71.841 326 C 74.412 326, 105.032 313.281, 107.214 311.307 C 110.849 308.017, 108.007 299.935, 103.250 300.038 C 102.287 300.058, 94.300 303.029, 85.500 306.640 M 392.707 302.016 C 389.520 304.522, 389.089 308.866, 391.784 311.305 C 393.809 313.138, 424.642 326, 427.010 326 C 427.860 326, 429.555 325.299, 430.777 324.443 C 433.536 322.511, 433.804 317.020, 431.250 314.765 C 429.502 313.222, 402.336 301.624, 397.807 300.488 C 396.189 300.082, 394.536 300.577, 392.707 302.016 M 108.418 376.645 C 93.049 391.545, 81.708 403.314, 81.352 404.732 C 80.498 408.137, 83.850 412.431, 87.599 412.735 C 90.161 412.943, 93.629 409.903, 117.258 386.735 C 145.881 358.670, 146.638 357.638, 142 353 C 137.633 348.633, 136.461 349.458, 108.418 376.645 M 357.039 353.189 C 354.829 355.560, 354.462 358.126, 355.937 360.882 C 356.452 361.845, 368.572 373.965, 382.869 387.816 C 402.725 407.052, 409.454 413, 411.360 413 C 414.225 413, 417.980 408.848, 418.038 405.615 C 418.064 404.143, 409.935 395.525, 391.288 377.256 C 362.602 349.152, 361.513 348.387, 357.039 353.189 M 184.774 386.374 C 183.324 387.476, 171.580 413.943, 169.591 420.593 C 168.095 425.593, 175.870 430.075, 180.273 426.750 C 182.346 425.185, 195 394.898, 195 391.502 C 195 386.401, 188.820 383.302, 184.774 386.374 M 306 387 C 304.900 388.100, 304 390.075, 304 391.389 C 304 394.661, 316.747 425.198, 318.760 426.750 C 322.440 429.586, 327.589 427.616, 329.334 422.706 C 330.234 420.173, 317.559 390.119, 314.381 387.250 C 311.301 384.469, 308.611 384.389, 306 387 M 244.643 398.842 C 243.139 400.504, 243.001 404.339, 243.238 437.985 L 243.500 475.285 246.130 477.248 C 248.944 479.349, 251.811 479.046, 254.494 476.363 C 255.781 475.076, 256 469.447, 256 437.584 C 256 402.744, 255.881 400.202, 254.171 398.655 C 251.738 396.453, 246.716 396.552, 244.643 398.842" stroke="none" fill="#040404" fill-rule="evenodd"/></svg>